<svg xmlns="http://www.w3.org/2000/svg" width="16" height="12" viewBox="0 0 16 12"><g><g><g/><g><path fill="#b0b8bc" d="M13.456.762c.959.054 1.43.196 1.864.968.452.771.68 2.099.68 4.438v.008c0 2.328-.228 3.666-.679 4.429-.434.772-.905.912-1.864.977-.959.055-3.368.088-5.455.088-2.091 0-4.501-.033-5.459-.089-.957-.065-1.428-.205-1.866-.977C.23 9.841 0 8.503 0 6.175v-.008C0 3.829.23 2.501.677 1.73c.438-.773.91-.914 1.867-.969C3.501.697 5.911.67 8.002.67c2.087 0 4.496.027 5.454.092zM11 6.17l-5-3v6z"/></g></g></g></svg>